# xmcd CD database file
#
# Track frame offsets:
#	150
#	18175
#	30516
#
# Disc length: 639 seconds
#
# Revision: 0
# Processed by: cddbd v1.5.1PL0 Copyright (c) Steve Scherf et al.
# Submitted via: CDex 1.51
#
DISCID=14027d03
DTITLE=Bella - EP
DYEAR=2003
DGENRE=Country
TTITLE0=Tumbling Down
TTITLE1=Way Beyond The Blue
TTITLE2=I Can Fly
EXTD=YEAR: 2003
EXTT0=
EXTT1=
EXTT2=
PLAYORDER=
